<svg xmlns="http://www.w3.org/2000/svg" xmlns:xlink="http://www.w3.org/1999/xlink" width="50" zoomAndPan="magnify" viewBox="0 0 60 60" height="50" preserveAspectRatio="xMidYMid meet" version="1.0"><defs><g/><clipPath id="ee377b4637"><path d="M 30 0 C 13.429688 0 0 13.429688 0 30 C 0 46.570312 13.429688 60 30 60 C 46.570312 60 60 46.570312 60 30 C 60 13.429688 46.570312 0 30 0 Z M 30 0 " clip-rule="nonzero"/></clipPath><clipPath id="723dc844eb"><path d="M 3.058594 29 L 6 29 L 6 32 L 3.058594 32 Z M 3.058594 29 " clip-rule="nonzero"/></clipPath><clipPath id="90adb5a9fc"><path d="M 4 27.511719 L 8 27.511719 L 8 31 L 4 31 Z M 4 27.511719 " clip-rule="nonzero"/></clipPath><clipPath id="e6390a82ae"><path d="M 6 28 L 9.808594 28 L 9.808594 31 L 6 31 Z M 6 28 " clip-rule="nonzero"/></clipPath><clipPath id="05a937cfb2"><path d="M 54 29 L 56.660156 29 L 56.660156 32 L 54 32 Z M 54 29 " clip-rule="nonzero"/></clipPath><clipPath id="0304b8a15a"><path d="M 52 27.511719 L 56 27.511719 L 56 31 L 52 31 Z M 52 27.511719 " clip-rule="nonzero"/></clipPath><clipPath id="3c275a22d6"><path d="M 50.167969 30 L 54 30 L 54 34 L 50.167969 34 Z M 50.167969 30 " clip-rule="nonzero"/></clipPath><clipPath id="76562a328c"><path d="M 50.167969 28 L 54 28 L 54 31 L 50.167969 31 Z M 50.167969 28 " clip-rule="nonzero"/></clipPath><clipPath id="ce21b43e41"><path d="M 12 12 L 48 12 L 48 48 L 12 48 Z M 12 12 " clip-rule="nonzero"/></clipPath><clipPath id="5803833b6b"><path d="M 15.964844 9.148438 L 50.558594 15.910156 L 43.800781 50.503906 L 9.203125 43.742188 Z M 15.964844 9.148438 " clip-rule="nonzero"/></clipPath><clipPath id="6967607ff8"><path d="M 15.964844 9.148438 L 50.558594 15.910156 L 43.800781 50.503906 L 9.203125 43.742188 Z M 15.964844 9.148438 " clip-rule="nonzero"/></clipPath><clipPath id="de925a423e"><path d="M 13 13 L 47 13 L 47 47 L 13 47 Z M 13 13 " clip-rule="nonzero"/></clipPath><clipPath id="5915cd18ea"><path d="M 15.964844 9.148438 L 50.558594 15.910156 L 43.800781 50.503906 L 9.203125 43.742188 Z M 15.964844 9.148438 " clip-rule="nonzero"/></clipPath><clipPath id="5c492cd819"><path d="M 15.964844 9.148438 L 50.558594 15.910156 L 43.800781 50.503906 L 9.203125 43.742188 Z M 15.964844 9.148438 " clip-rule="nonzero"/></clipPath><clipPath id="3d7297eaf2"><path d="M 18 25 L 43 25 L 43 41 L 18 41 Z M 18 25 " clip-rule="nonzero"/></clipPath><clipPath id="24084e5287"><path d="M 15.964844 9.148438 L 50.558594 15.910156 L 43.800781 50.503906 L 9.203125 43.742188 Z M 15.964844 9.148438 " clip-rule="nonzero"/></clipPath><clipPath id="f8065b1362"><path d="M 15.964844 9.148438 L 50.558594 15.910156 L 43.800781 50.503906 L 9.203125 43.742188 Z M 15.964844 9.148438 " clip-rule="nonzero"/></clipPath><clipPath id="39a38eac2f"><path d="M 25 19 L 30 19 L 30 28 L 25 28 Z M 25 19 " clip-rule="nonzero"/></clipPath><clipPath id="edce9e5eba"><path d="M 15.964844 9.148438 L 50.558594 15.910156 L 43.800781 50.503906 L 9.203125 43.742188 Z M 15.964844 9.148438 " clip-rule="nonzero"/></clipPath><clipPath id="afda01a43c"><path d="M 15.964844 9.148438 L 50.558594 15.910156 L 43.800781 50.503906 L 9.203125 43.742188 Z M 15.964844 9.148438 " clip-rule="nonzero"/></clipPath><clipPath id="9762249e2f"><path d="M 32 20 L 37 20 L 37 29 L 32 29 Z M 32 20 " clip-rule="nonzero"/></clipPath><clipPath id="f71f7aecc5"><path d="M 15.964844 9.148438 L 50.558594 15.910156 L 43.800781 50.503906 L 9.203125 43.742188 Z M 15.964844 9.148438 " clip-rule="nonzero"/></clipPath><clipPath id="6a08befc24"><path d="M 15.964844 9.148438 L 50.558594 15.910156 L 43.800781 50.503906 L 9.203125 43.742188 Z M 15.964844 9.148438 " clip-rule="nonzero"/></clipPath></defs><g clip-path="url(#ee377b4637)"><rect x="-6" width="72" fill="#ff5e41" y="-6" height="72" fill-opacity="1"/></g><g clip-path="url(#723dc844eb)"><path fill="#fad63a" d="M 5.578125 31.082031 C 5.011719 31.390625 3.066406 32.324219 3.296875 30.386719 C 3.539062 28.34375 5.355469 29.875 5.714844 30.203125 C 5.476562 30.464844 5.429688 30.757812 5.578125 31.082031 Z M 5.578125 31.082031 " fill-opacity="1" fill-rule="nonzero"/></g><path fill="#fad63a" d="M 4.953125 33.457031 C 3.210938 32.511719 5.097656 31.433594 5.625 31.167969 C 5.8125 31.46875 6.082031 31.59375 6.433594 31.535156 C 6.507812 32.09375 6.726562 34.414062 4.953125 33.457031 Z M 4.953125 33.457031 " fill-opacity="1" fill-rule="nonzero"/><g clip-path="url(#90adb5a9fc)"><path fill="#fad63a" d="M 6.632812 30.011719 C 6.316406 29.871094 6.027344 29.917969 5.769531 30.148438 C 5.40625 29.746094 3.886719 27.929688 5.902344 27.722656 C 7.90625 27.511719 6.898438 29.53125 6.632812 30.011719 Z M 6.632812 30.011719 " fill-opacity="1" fill-rule="nonzero"/></g><path fill="#fad63a" d="M 8.480469 32.945312 C 6.976562 34.300781 6.609375 32.039062 6.542969 31.511719 C 6.851562 31.417969 7.035156 31.210938 7.097656 30.890625 C 7.460938 30.960938 10.058594 31.523438 8.480469 32.945312 Z M 8.480469 32.945312 " fill-opacity="1" fill-rule="nonzero"/><g clip-path="url(#e6390a82ae)"><path fill="#fad63a" d="M 7.105469 30.808594 C 7.109375 30.792969 7.109375 30.777344 7.109375 30.765625 C 7.117188 30.453125 6.984375 30.214844 6.714844 30.054688 C 6.957031 29.644531 8.28125 27.539062 9.089844 29.441406 C 9.882812 31.304688 7.628906 30.921875 7.105469 30.808594 Z M 7.105469 30.808594 " fill-opacity="1" fill-rule="nonzero"/></g><path fill="#ff5e41" d="M 7.109375 30.765625 C 7.109375 30.777344 7.109375 30.792969 7.105469 30.808594 C 7.105469 30.835938 7.101562 30.863281 7.09375 30.890625 C 7.035156 31.210938 6.851562 31.417969 6.542969 31.511719 C 6.507812 31.523438 6.472656 31.53125 6.433594 31.539062 C 6.082031 31.59375 5.8125 31.46875 5.625 31.167969 C 5.605469 31.140625 5.59375 31.113281 5.578125 31.082031 C 5.429688 30.757812 5.476562 30.464844 5.71875 30.203125 C 5.734375 30.183594 5.753906 30.164062 5.769531 30.148438 C 6.027344 29.917969 6.316406 29.871094 6.632812 30.011719 C 6.660156 30.023438 6.691406 30.039062 6.71875 30.054688 C 6.984375 30.214844 7.117188 30.453125 7.109375 30.765625 Z M 7.109375 30.765625 " fill-opacity="1" fill-rule="nonzero"/><g clip-path="url(#05a937cfb2)"><path fill="#fad63a" d="M 54.398438 31.082031 C 54.964844 31.390625 56.910156 32.324219 56.679688 30.386719 C 56.4375 28.34375 54.621094 29.875 54.257812 30.203125 C 54.5 30.464844 54.546875 30.757812 54.398438 31.082031 Z M 54.398438 31.082031 " fill-opacity="1" fill-rule="nonzero"/></g><path fill="#fad63a" d="M 55.023438 33.457031 C 56.765625 32.511719 54.875 31.433594 54.351562 31.167969 C 54.164062 31.46875 53.894531 31.59375 53.542969 31.535156 C 53.464844 32.09375 53.25 34.414062 55.023438 33.457031 Z M 55.023438 33.457031 " fill-opacity="1" fill-rule="nonzero"/><g clip-path="url(#0304b8a15a)"><path fill="#fad63a" d="M 53.34375 30.011719 C 53.660156 29.871094 53.949219 29.917969 54.207031 30.148438 C 54.570312 29.746094 56.089844 27.929688 54.074219 27.722656 C 52.070312 27.511719 53.078125 29.53125 53.34375 30.011719 Z M 53.34375 30.011719 " fill-opacity="1" fill-rule="nonzero"/></g><g clip-path="url(#3c275a22d6)"><path fill="#fad63a" d="M 51.496094 32.945312 C 53 34.300781 53.367188 32.039062 53.433594 31.511719 C 53.125 31.417969 52.941406 31.210938 52.878906 30.890625 C 52.515625 30.960938 49.917969 31.523438 51.496094 32.945312 Z M 51.496094 32.945312 " fill-opacity="1" fill-rule="nonzero"/></g><g clip-path="url(#76562a328c)"><path fill="#fad63a" d="M 52.871094 30.808594 C 52.867188 30.792969 52.867188 30.777344 52.867188 30.765625 C 52.859375 30.453125 52.992188 30.214844 53.257812 30.054688 C 53.019531 29.644531 51.691406 27.539062 50.882812 29.441406 C 50.09375 31.304688 52.347656 30.921875 52.871094 30.808594 Z M 52.871094 30.808594 " fill-opacity="1" fill-rule="nonzero"/></g><path fill="#ff5e41" d="M 52.867188 30.765625 C 52.867188 30.777344 52.867188 30.792969 52.871094 30.808594 C 52.871094 30.835938 52.875 30.863281 52.878906 30.890625 C 52.941406 31.210938 53.125 31.417969 53.433594 31.511719 C 53.46875 31.523438 53.503906 31.53125 53.542969 31.539062 C 53.894531 31.59375 54.164062 31.46875 54.351562 31.167969 C 54.367188 31.140625 54.382812 31.113281 54.398438 31.082031 C 54.546875 30.757812 54.5 30.464844 54.257812 30.203125 C 54.242188 30.183594 54.222656 30.164062 54.207031 30.148438 C 53.949219 29.917969 53.660156 29.871094 53.34375 30.011719 C 53.316406 30.023438 53.285156 30.039062 53.257812 30.054688 C 52.992188 30.214844 52.859375 30.453125 52.867188 30.765625 Z M 52.867188 30.765625 " fill-opacity="1" fill-rule="nonzero"/><g fill="#ffffff" fill-opacity="1"><g transform="translate(9.820183, 22.189914)"><g><path d="M 1.21875 -2.488281 C 1.667969 -3.402344 1.542969 -4.183594 0.859375 -4.519531 C 0.246094 -4.820312 -0.277344 -4.476562 -0.695312 -3.625 L -0.785156 -3.667969 C -0.414062 -4.425781 -0.539062 -5.023438 -1.101562 -5.296875 C -1.773438 -5.628906 -2.40625 -5.175781 -2.835938 -4.292969 L -3.90625 -2.113281 L 0.078125 -0.160156 Z M -1.792969 -2.679688 L -1.433594 -3.414062 C -1.335938 -3.613281 -1.210938 -3.722656 -1.089844 -3.664062 C -0.972656 -3.605469 -0.976562 -3.449219 -1.070312 -3.257812 L -1.441406 -2.507812 Z M -1.167969 -2.371094 L -0.773438 -3.175781 C -0.667969 -3.390625 -0.539062 -3.46875 -0.417969 -3.410156 C -0.296875 -3.351562 -0.28125 -3.203125 -0.386719 -2.984375 L -0.78125 -2.183594 Z M -1.167969 -2.371094 "/></g></g></g><g fill="#ffffff" fill-opacity="1"><g transform="translate(12.039873, 17.743129)"><g><path d="M 1.621094 -1.792969 C 2.480469 -2.828125 2.46875 -4.082031 1.3125 -5.046875 C 0.152344 -6.011719 -1.074219 -5.789062 -1.933594 -4.757812 C -2.796875 -3.726562 -2.792969 -2.476562 -1.636719 -1.511719 C -0.476562 -0.546875 0.757812 -0.761719 1.621094 -1.792969 Z M 0.171875 -3 C -0.15625 -2.605469 -0.488281 -2.453125 -0.699219 -2.628906 C -0.90625 -2.800781 -0.816406 -3.15625 -0.488281 -3.550781 C -0.164062 -3.941406 0.171875 -4.097656 0.382812 -3.921875 C 0.589844 -3.75 0.5 -3.390625 0.171875 -3 Z M 0.171875 -3 "/></g></g></g><g fill="#ffffff" fill-opacity="1"><g transform="translate(15.452071, 13.733956)"><g><path d="M 2.007812 -1.347656 C 3.09375 -2.136719 3.386719 -3.359375 2.5 -4.578125 C 1.609375 -5.796875 0.367188 -5.875 -0.71875 -5.085938 C -1.804688 -4.292969 -2.109375 -3.082031 -1.21875 -1.863281 C -0.328125 -0.644531 0.921875 -0.554688 2.007812 -1.347656 Z M 0.898438 -2.867188 C 0.484375 -2.566406 0.125 -2.5 -0.0390625 -2.71875 C -0.199219 -2.9375 -0.0234375 -3.261719 0.390625 -3.5625 C 0.800781 -3.863281 1.164062 -3.933594 1.324219 -3.710938 C 1.484375 -3.492188 1.308594 -3.167969 0.898438 -2.867188 Z M 0.898438 -2.867188 "/></g></g></g><g fill="#ffffff" fill-opacity="1"><g transform="translate(19.762586, 10.685079)"><g><path d="M 1.042969 -1.820312 C 0.828125 -2.160156 0.835938 -2.5 1.152344 -2.632812 C 1.714844 -2.867188 2.144531 -1.828125 2.273438 -0.941406 L 3.964844 -1.644531 C 3.519531 -3.175781 2.648438 -4 1.695312 -3.605469 C 1.332031 -3.457031 1.207031 -3.066406 1.132812 -2.832031 L 1.035156 -2.878906 L 2.324219 -5.765625 L 0.238281 -4.902344 L 0.644531 -2.820312 L 0.566406 -2.789062 L -0.0898438 -4.765625 L -1.535156 -4.167969 L 0.164062 -0.0664062 L 1.710938 -0.710938 Z M 1.042969 -1.820312 "/></g></g></g><g fill="#ffffff" fill-opacity="1"><g transform="translate(24.310105, 8.857891)"><g><path d="M 1.429688 -1.535156 C 1.292969 -1.917969 1.382812 -2.246094 1.71875 -2.300781 C 2.320312 -2.402344 2.503906 -1.296875 2.425781 -0.402344 L 4.234375 -0.703125 C 4.148438 -2.292969 3.488281 -3.296875 2.46875 -3.128906 C 2.082031 -3.0625 1.871094 -2.714844 1.746094 -2.5 L 1.664062 -2.570312 L 3.570312 -5.089844 L 1.34375 -4.71875 L 1.265625 -2.601562 L 1.183594 -2.585938 L 0.992188 -4.664062 L -0.550781 -4.40625 L 0.175781 -0.0273438 L 1.824219 -0.304688 Z M 1.429688 -1.535156 "/></g></g></g><g fill="#ffffff" fill-opacity="1"><g transform="translate(29.303775, 8.207958)"><g/></g></g><g fill="#ffffff" fill-opacity="1"><g transform="translate(31.292353, 8.128345)"><g><path d="M 2.730469 0.457031 C 3.738281 0.628906 4.453125 0.285156 4.578125 -0.464844 C 4.691406 -1.140625 4.210938 -1.542969 3.273438 -1.699219 L 3.289062 -1.800781 C 4.121094 -1.660156 4.660156 -1.949219 4.761719 -2.570312 C 4.886719 -3.308594 4.273438 -3.78125 3.304688 -3.945312 L 0.910156 -4.347656 L 0.175781 0.03125 Z M 2.054688 -2.484375 L 2.863281 -2.347656 C 3.082031 -2.3125 3.21875 -2.222656 3.199219 -2.09375 C 3.175781 -1.960938 3.027344 -1.921875 2.816406 -1.957031 L 1.992188 -2.097656 Z M 1.941406 -1.796875 L 2.820312 -1.648438 C 3.058594 -1.609375 3.171875 -1.503906 3.148438 -1.375 C 3.125 -1.242188 2.988281 -1.183594 2.75 -1.222656 L 1.867188 -1.371094 Z M 1.941406 -1.796875 "/></g></g></g><g fill="#ffffff" fill-opacity="1"><g transform="translate(36.187758, 8.985459)"><g><path d="M 2.183594 1.039062 C 3.417969 1.570312 4.617188 1.199219 5.210938 -0.183594 C 5.804688 -1.570312 5.242188 -2.683594 4.007812 -3.214844 C 2.769531 -3.742188 1.578125 -3.386719 0.980469 -2 C 0.386719 -0.613281 0.945312 0.507812 2.183594 1.039062 Z M 2.925781 -0.691406 C 2.453125 -0.894531 2.210938 -1.167969 2.320312 -1.417969 C 2.425781 -1.667969 2.792969 -1.683594 3.265625 -1.484375 C 3.730469 -1.28125 3.976562 -1.003906 3.867188 -0.753906 C 3.761719 -0.503906 3.390625 -0.492188 2.925781 -0.691406 Z M 2.925781 -0.691406 "/></g></g></g><g fill="#ffffff" fill-opacity="1"><g transform="translate(41.004621, 11.110166)"><g><path d="M 1.863281 1.539062 C 2.933594 2.351562 4.1875 2.289062 5.101562 1.085938 C 6.015625 -0.113281 5.738281 -1.328125 4.667969 -2.144531 C 3.597656 -2.957031 2.351562 -2.902344 1.4375 -1.699219 C 0.523438 -0.5 0.792969 0.726562 1.863281 1.539062 Z M 3.003906 0.0390625 C 2.597656 -0.269531 2.429688 -0.597656 2.59375 -0.8125 C 2.761719 -1.03125 3.117188 -0.957031 3.527344 -0.644531 C 3.929688 -0.335938 4.101562 -0.0078125 3.9375 0.207031 C 3.769531 0.425781 3.40625 0.347656 3.003906 0.0390625 Z M 3.003906 0.0390625 "/></g></g></g><g fill="#ffffff" fill-opacity="1"><g transform="translate(45.157801, 14.370124)"><g><path d="M 2.042969 0.480469 C 2.308594 0.175781 2.636719 0.0859375 2.851562 0.351562 C 3.234375 0.824219 2.367188 1.53125 1.550781 1.90625 L 2.707031 3.328125 C 4.050781 2.46875 4.59375 1.398438 3.941406 0.59375 C 3.691406 0.289062 3.28125 0.28125 3.035156 0.277344 L 3.054688 0.171875 L 6.191406 0.578125 L 4.765625 -1.171875 L 2.886719 -0.191406 L 2.832031 -0.253906 L 4.542969 -1.449219 L 3.554688 -2.660156 L 0.113281 0.136719 L 1.167969 1.4375 Z M 2.042969 0.480469 "/></g></g></g><g fill="#ffffff" fill-opacity="1"><g transform="translate(48.207931, 18.206168)"><g><path d="M 1.878906 0.929688 C 2.207031 0.691406 2.546875 0.683594 2.699219 0.988281 C 2.964844 1.535156 1.957031 2.027344 1.078125 2.210938 L 1.882812 3.855469 C 3.382812 3.320312 4.15625 2.402344 3.703125 1.472656 C 3.53125 1.121094 3.132812 1.015625 2.894531 0.957031 L 2.9375 0.859375 L 5.898438 1.96875 L 4.90625 -0.0585938 L 2.851562 0.46875 L 2.816406 0.394531 L 4.753906 -0.378906 L 4.066406 -1.785156 L 0.078125 0.160156 L 0.8125 1.664062 Z M 1.878906 0.929688 "/></g></g></g><g fill="#ffffff" fill-opacity="1"><g transform="translate(8.814938, 45.583304)"><g><path d="M 1.8125 2.097656 C 2.480469 2.867188 3.246094 3.058594 3.820312 2.5625 C 4.339844 2.113281 4.226562 1.5 3.605469 0.78125 L 3.683594 0.714844 C 4.234375 1.351562 4.832031 1.472656 5.308594 1.0625 C 5.871094 0.570312 5.703125 -0.1875 5.0625 -0.929688 L 3.472656 -2.765625 L 0.117188 0.132812 Z M 3.167969 -0.601562 L 3.703125 0.0195312 C 3.847656 0.1875 3.898438 0.34375 3.796875 0.429688 C 3.695312 0.515625 3.558594 0.453125 3.417969 0.289062 L 2.871094 -0.34375 Z M 2.640625 -0.144531 L 3.222656 0.53125 C 3.382812 0.714844 3.402344 0.863281 3.300781 0.949219 C 3.199219 1.039062 3.054688 0.996094 2.898438 0.8125 L 2.3125 0.136719 Z M 2.640625 -0.144531 "/></g></g></g><g fill="#ffffff" fill-opacity="1"><g transform="translate(12.933276, 50.087066)"><g><path d="M 1.910156 1.480469 C 3.007812 2.257812 4.257812 2.152344 5.132812 0.925781 C 6.007812 -0.304688 5.691406 -1.511719 4.597656 -2.289062 C 3.503906 -3.070312 2.257812 -2.972656 1.382812 -1.746094 C 0.507812 -0.515625 0.816406 0.699219 1.910156 1.480469 Z M 3.003906 -0.0546875 C 2.585938 -0.351562 2.410156 -0.671875 2.566406 -0.894531 C 2.726562 -1.117188 3.085938 -1.054688 3.503906 -0.757812 C 3.917969 -0.460938 4.097656 -0.136719 3.941406 0.0820312 C 3.78125 0.304688 3.417969 0.238281 3.003906 -0.0546875 Z M 3.003906 -0.0546875 "/></g></g></g><g fill="#ffffff" fill-opacity="1"><g transform="translate(18.280494, 53.65506)"><g><path d="M 2.214844 0.96875 C 3.464844 1.460938 4.652344 1.054688 5.203125 -0.351562 C 5.753906 -1.753906 5.152344 -2.847656 3.902344 -3.339844 C 2.652344 -3.828125 1.46875 -3.433594 0.917969 -2.03125 C 0.367188 -0.625 0.960938 0.480469 2.214844 0.96875 Z M 2.902344 -0.785156 C 2.421875 -0.96875 2.171875 -1.238281 2.273438 -1.492188 C 2.371094 -1.746094 2.738281 -1.773438 3.214844 -1.585938 C 3.6875 -1.402344 3.941406 -1.128906 3.84375 -0.875 C 3.742188 -0.625 3.371094 -0.597656 2.902344 -0.785156 Z M 2.902344 -0.785156 "/></g></g></g><g fill="#ffffff" fill-opacity="1"><g transform="translate(24.317412, 55.793984)"><g><path d="M 1.820312 -1.042969 C 1.804688 -1.449219 1.984375 -1.738281 2.324219 -1.691406 C 2.925781 -1.609375 2.773438 -0.496094 2.4375 0.335938 L 4.25 0.582031 C 4.644531 -0.960938 4.308594 -2.117188 3.285156 -2.257812 C 2.894531 -2.308594 2.589844 -2.039062 2.40625 -1.871094 L 2.347656 -1.960938 L 4.917969 -3.804688 L 2.679688 -4.109375 L 1.976562 -2.109375 L 1.898438 -2.121094 L 2.328125 -4.160156 L 0.777344 -4.371094 L 0.175781 0.0234375 L 1.832031 0.25 Z M 1.820312 -1.042969 "/></g></g></g><g fill="#ffffff" fill-opacity="1"><g transform="translate(30.109868, 56.346117)"><g/></g></g><g fill="#ffffff" fill-opacity="1"><g transform="translate(32.881306, 56.27826)"><g><path d="M 2.632812 -0.414062 C 3.183594 -0.523438 3.789062 -0.730469 4.136719 -0.914062 L 3.722656 -2.972656 C 3.449219 -2.722656 2.902344 -2.46875 2.367188 -2.367188 C 1.679688 -2.230469 1.164062 -2.183594 1.105469 -2.480469 C 1.054688 -2.75 1.476562 -2.910156 2.140625 -3.039062 C 2.640625 -3.132812 3.191406 -3.113281 3.515625 -3 L 3.234375 -5.050781 C 2.886719 -5.082031 2.359375 -5.074219 1.765625 -4.960938 C 0.292969 -4.675781 -0.625 -3.804688 -0.308594 -2.195312 C 0 -0.601562 1.164062 -0.128906 2.632812 -0.414062 Z M 2.632812 -0.414062 "/></g></g></g><g fill="#ffffff" fill-opacity="1"><g transform="translate(38.668852, 54.956515)"><g><path d="M 0.753906 -2.289062 L -0.148438 -4.773438 L -1.605469 -4.140625 L 0.164062 -0.0703125 L 3.488281 -1.515625 L 2.738281 -3.246094 Z M 0.753906 -2.289062 "/></g></g></g><g fill="#ffffff" fill-opacity="1"><g transform="translate(43.609149, 52.660473)"><g><path d="M 1.847656 -1.222656 C 2.898438 -1.984375 3.121094 -2.960938 2.429688 -3.914062 L 0.847656 -6.097656 L -0.433594 -5.167969 L 0.734375 -3.789062 C 1.050781 -3.421875 1.070312 -3.054688 0.707031 -2.792969 C 0.347656 -2.53125 0.0078125 -2.667969 -0.246094 -3.078125 L -1.1875 -4.621094 L -2.472656 -3.6875 L -0.890625 -1.507812 C -0.191406 -0.542969 0.804688 -0.464844 1.847656 -1.222656 Z M 1.847656 -1.222656 "/></g></g></g><g fill="#ffffff" fill-opacity="1"><g transform="translate(48.354263, 49.00273)"><g><path d="M 1.8125 -2.097656 C 2.480469 -2.867188 2.554688 -3.65625 1.980469 -4.152344 C 1.460938 -4.601562 0.871094 -4.398438 0.25 -3.679688 L 0.171875 -3.746094 C 0.722656 -4.386719 0.753906 -4.992188 0.28125 -5.40625 C -0.285156 -5.894531 -1.011719 -5.617188 -1.652344 -4.871094 L -3.242188 -3.035156 L 0.117188 -0.132812 Z M -1.054688 -3.046875 L -0.519531 -3.664062 C -0.375 -3.832031 -0.226562 -3.90625 -0.125 -3.820312 C -0.0234375 -3.734375 -0.0664062 -3.585938 -0.207031 -3.421875 L -0.757812 -2.789062 Z M -0.527344 -2.589844 L 0.0585938 -3.265625 C 0.214844 -3.449219 0.363281 -3.492188 0.460938 -3.402344 C 0.5625 -3.316406 0.542969 -3.167969 0.386719 -2.984375 L -0.199219 -2.308594 Z M -0.527344 -2.589844 "/></g></g></g><g clip-path="url(#ce21b43e41)"><g clip-path="url(#5803833b6b)"><g clip-path="url(#6967607ff8)"><path fill="#47b8e1" d="M 26.589844 47.4375 C 36.222656 49.320312 45.558594 43.039062 47.4375 33.40625 C 49.320312 23.773438 43.039062 14.4375 33.40625 12.554688 C 23.773438 10.671875 14.4375 16.957031 12.554688 26.589844 C 10.671875 36.222656 16.957031 45.558594 26.589844 47.4375 Z M 26.589844 47.4375 " fill-opacity="1" fill-rule="nonzero"/></g></g></g><g clip-path="url(#de925a423e)"><g clip-path="url(#5915cd18ea)"><g clip-path="url(#5c492cd819)"><path fill="#fad63a" d="M 26.921875 45.734375 C 35.613281 47.433594 44.039062 41.765625 45.734375 33.074219 C 47.433594 24.382812 41.765625 15.957031 33.074219 14.257812 C 24.382812 12.5625 15.957031 18.230469 14.257812 26.921875 C 12.558594 35.613281 18.230469 44.039062 26.921875 45.734375 Z M 26.921875 45.734375 " fill-opacity="1" fill-rule="nonzero"/></g></g></g><g clip-path="url(#3d7297eaf2)"><g clip-path="url(#24084e5287)"><g clip-path="url(#f8065b1362)"><path fill="#3b3737" d="M 28.0625 39.910156 C 24.929688 39.292969 22.171875 37.464844 20.390625 34.816406 C 18.609375 32.171875 17.949219 28.925781 18.558594 25.796875 C 18.617188 25.566406 18.761719 25.367188 18.960938 25.242188 C 19.164062 25.113281 19.40625 25.066406 19.636719 25.113281 C 19.871094 25.160156 20.078125 25.292969 20.214844 25.484375 C 20.351562 25.679688 20.410156 25.917969 20.378906 26.152344 C 20.042969 27.492188 19.988281 28.886719 20.207031 30.253906 C 20.429688 31.617188 20.925781 32.921875 21.667969 34.085938 C 22.410156 35.253906 23.382812 36.257812 24.523438 37.035156 C 25.667969 37.8125 26.957031 38.351562 28.3125 38.617188 C 29.667969 38.882812 31.066406 38.871094 32.414062 38.578125 C 33.765625 38.285156 35.042969 37.722656 36.171875 36.921875 C 37.296875 36.121094 38.25 35.097656 38.96875 33.917969 C 39.6875 32.738281 40.160156 31.421875 40.351562 30.054688 C 40.410156 29.824219 40.554688 29.625 40.757812 29.5 C 40.957031 29.371094 41.199219 29.328125 41.433594 29.371094 C 41.664062 29.417969 41.871094 29.550781 42.007812 29.746094 C 42.148438 29.9375 42.207031 30.175781 42.175781 30.410156 C 41.558594 33.539062 39.726562 36.296875 37.082031 38.078125 C 34.433594 39.859375 31.191406 40.515625 28.0625 39.910156 Z M 28.0625 39.910156 " fill-opacity="1" fill-rule="nonzero"/></g></g></g><g clip-path="url(#39a38eac2f)"><g clip-path="url(#edce9e5eba)"><g clip-path="url(#afda01a43c)"><path fill="#3b3737" d="M 28.53125 19.417969 C 27.148438 19.148438 26.253906 21.132812 25.871094 23.074219 C 25.492188 25.019531 25.566406 27.207031 26.953125 27.480469 C 28.34375 27.75 29.230469 25.765625 29.609375 23.820312 C 29.992188 21.875 29.90625 19.703125 28.527344 19.433594 Z M 28.53125 19.417969 " fill-opacity="1" fill-rule="nonzero"/></g></g></g><g clip-path="url(#9762249e2f)"><g clip-path="url(#f71f7aecc5)"><g clip-path="url(#6a08befc24)"><path fill="#3b3737" d="M 35.339844 20.75 C 33.960938 20.480469 33.0625 22.460938 32.683594 24.40625 C 32.304688 26.351562 32.386719 28.539062 33.765625 28.808594 C 35.144531 29.078125 36.042969 27.097656 36.421875 25.152344 C 36.800781 23.207031 36.71875 21.03125 35.339844 20.761719 Z M 35.339844 20.75 " fill-opacity="1" fill-rule="nonzero"/></g></g></g></svg>