<svg xmlns="http://www.w3.org/2000/svg" xmlns:xlink="http://www.w3.org/1999/xlink" width="40" zoomAndPan="magnify" viewBox="0 0 375 374.999991" height="40" preserveAspectRatio="xMidYMid meet" version="1.0"><defs><clipPath id="0570497b26"><path d="M 30 30 L 345 30 L 345 345 L 30 345 Z M 30 30 " clip-rule="nonzero"/></clipPath><clipPath id="4c78ab2b36"><path d="M 67.898438 0 L 375 67.902344 L 307.097656 375 L 0 307.101562 Z M 67.898438 0 " clip-rule="nonzero"/></clipPath><clipPath id="2f60cd9f0d"><path d="M 221.449219 33.949219 C 136.644531 15.199219 52.699219 68.746094 33.949219 153.550781 C 15.199219 238.355469 68.746094 322.300781 153.550781 341.050781 C 238.351562 359.800781 322.300781 306.253906 341.050781 221.449219 C 359.800781 136.648438 306.253906 52.699219 221.449219 33.949219 Z M 221.449219 33.949219 " clip-rule="nonzero"/></clipPath><clipPath id="868007fc56"><path d="M 40 37 L 335 37 L 335 338 L 40 338 Z M 40 37 " clip-rule="nonzero"/></clipPath><clipPath id="d323953bb3"><path d="M 340.34375 332.242188 L 45.785156 342.832031 L 35.007812 43.027344 L 329.566406 32.4375 Z M 340.34375 332.242188 " clip-rule="nonzero"/></clipPath><clipPath id="47620eff8a"><path d="M 340.34375 332.242188 L 45.785156 342.832031 L 35.007812 43.027344 L 329.566406 32.4375 Z M 340.34375 332.242188 " clip-rule="nonzero"/></clipPath><clipPath id="7379fb56a2"><path d="M 48 48 L 327 48 L 327 327 L 48 327 Z M 48 48 " clip-rule="nonzero"/></clipPath><clipPath id="7adeae6c50"><path d="M 33.0625 309.039062 L 65.960938 33.0625 L 341.9375 65.960938 L 309.039062 341.9375 Z M 33.0625 309.039062 " clip-rule="nonzero"/></clipPath><clipPath id="037df428bf"><path d="M 49.511719 171.050781 C 40.425781 247.261719 94.839844 316.40625 171.050781 325.488281 C 247.261719 334.574219 316.40625 280.160156 325.488281 203.949219 C 334.574219 127.738281 280.160156 58.59375 203.949219 49.511719 C 127.738281 40.425781 58.59375 94.839844 49.511719 171.050781 Z M 49.511719 171.050781 " clip-rule="nonzero"/></clipPath><clipPath id="8e3c8f6826"><path d="M 104.21875 75.902344 L 270.71875 75.902344 L 270.71875 299.402344 L 104.21875 299.402344 Z M 104.21875 75.902344 " clip-rule="nonzero"/></clipPath></defs><g clip-path="url(#0570497b26)"><g clip-path="url(#4c78ab2b36)"><g clip-path="url(#2f60cd9f0d)"><path fill="#fdf9f7" d="M 67.898438 0 L 375 67.902344 L 307.097656 375 L 0 307.101562 Z M 67.898438 0 " fill-opacity="1" fill-rule="nonzero"/></g></g></g><g clip-path="url(#868007fc56)"><g clip-path="url(#d323953bb3)"><g clip-path="url(#47620eff8a)"><path fill="#0b0019" d="M 334.351562 176.242188 C 335.628906 201.390625 330.253906 225.210938 319.71875 247.917969 C 314.066406 260.09375 306.789062 271.273438 298.179688 281.628906 C 284.871094 297.632812 269.066406 310.488281 250.691406 320.191406 C 237.402344 327.210938 223.34375 332.210938 208.546875 334.761719 C 200.316406 336.183594 191.96875 337.574219 183.558594 337.128906 C 177.882812 336.828125 172.195312 336.726562 166.507812 336.222656 C 150.640625 334.8125 135.765625 330.273438 121.441406 323.625 C 110.808594 318.691406 101.132812 312.234375 92.046875 304.832031 C 86.050781 299.945312 80.699219 294.441406 75.65625 288.609375 C 74.257812 286.992188 74.085938 285.039062 75.371094 284.019531 C 77 282.730469 78.550781 283.117188 79.910156 284.570312 C 82.671875 287.519531 85.367188 290.527344 88.273438 293.347656 C 104.558594 309.203125 123.636719 320.171875 145.511719 326.269531 C 154.058594 328.648438 162.730469 330.191406 171.621094 330.757812 C 176.265625 331.054688 180.925781 331.382812 185.550781 331.378906 C 190.492188 331.375 195.457031 330.675781 200.382812 330.027344 C 209.941406 328.769531 219.320312 326.605469 228.414062 323.378906 C 243.855469 317.898438 258.066406 310.191406 270.925781 299.949219 C 278.371094 294.015625 285.363281 287.628906 291.570312 280.425781 C 302.980469 267.183594 311.917969 252.414062 318.308594 236.121094 C 322.125 226.386719 324.878906 216.371094 326.617188 206.058594 C 327.320312 201.894531 327.667969 197.695312 328.15625 193.515625 C 329.398438 182.960938 329.121094 172.378906 327.546875 161.988281 C 325.351562 147.46875 321.292969 133.378906 314.808594 120.074219 C 309.730469 109.667969 303.570312 99.976562 296.09375 91.152344 C 287.289062 80.769531 277.167969 71.910156 265.613281 64.632812 C 250.617188 55.1875 234.449219 48.929688 217.003906 45.859375 C 205.425781 43.820312 193.757812 42.988281 182.089844 44.113281 C 160.871094 46.160156 140.839844 52.285156 122.351562 63.035156 C 110.328125 70.027344 99.5 78.519531 89.753906 88.503906 C 76.035156 102.566406 65.625 118.714844 58.089844 136.773438 C 52.609375 149.910156 49.164062 163.625 47.710938 177.773438 C 47.019531 184.464844 46.652344 191.226562 46.945312 197.96875 C 47.632812 213.972656 50.417969 229.570312 56.28125 244.550781 C 56.648438 245.492188 57.082031 246.425781 57.3125 247.398438 C 57.617188 248.675781 57.503906 250.121094 56.0625 250.472656 C 54.730469 250.800781 53.023438 251.679688 52.015625 249.613281 C 50.433594 246.382812 49.234375 243.003906 48.171875 239.601562 C 45.507812 231.089844 43.292969 222.457031 42.300781 213.558594 C 41.261719 204.230469 40.519531 194.828125 41.082031 185.484375 C 42.734375 157.8125 50.941406 132.152344 65.957031 108.769531 C 72.15625 99.117188 79.3125 90.179688 87.503906 82.164062 C 102.503906 67.488281 119.65625 56.015625 139.257812 48.289062 C 148.617188 44.597656 158.238281 41.867188 168.09375 39.992188 C 178.453125 38.019531 188.996094 37.480469 199.457031 37.875 C 218.023438 38.566406 235.871094 42.925781 252.769531 50.769531 C 263.890625 55.933594 274.167969 62.457031 283.5625 70.371094 C 306.527344 89.714844 321.652344 114.039062 329.582031 142.890625 C 331.078125 148.34375 332.074219 153.945312 333.105469 159.511719 C 334.109375 165.027344 334.105469 170.648438 334.351562 176.242188 Z M 334.351562 176.242188 " fill-opacity="1" fill-rule="nonzero"/></g></g></g><g clip-path="url(#7379fb56a2)"><g clip-path="url(#7adeae6c50)"><g clip-path="url(#037df428bf)"><path fill="#6db329" d="M 33.0625 309.039062 L 65.960938 33.0625 L 341.9375 65.960938 L 309.039062 341.9375 Z M 33.0625 309.039062 " fill-opacity="1" fill-rule="nonzero"/></g></g></g><g clip-path="url(#8e3c8f6826)"><path fill="#000000" d="M 234.742188 167.199219 C 248.34375 159.574219 259.824219 147.539062 259.824219 125.929688 L 259.824219 125.339844 C 259.824219 95.3125 235.808594 75.898438 196.796875 75.898438 L 127.152344 75.898438 C 114.648438 75.898438 104.507812 86.058594 104.507812 98.585938 L 104.507812 267.222656 L 114.171875 267.222656 L 114.171875 99.726562 C 114.171875 94.160156 118.671875 89.65625 124.226562 89.65625 C 129.78125 89.65625 134.285156 94.160156 134.285156 99.726562 L 134.285156 267.222656 L 152.808594 267.222656 L 152.808594 299.410156 L 172.515625 286.707031 L 192.21875 299.410156 L 192.21875 267.222656 L 198.984375 267.222656 C 242.101562 267.222656 270.433594 249.738281 270.433594 214.726562 L 270.433594 214.179688 C 270.433594 188.46875 256.835938 175.640625 234.742188 167.199219 " fill-opacity="1" fill-rule="nonzero"/></g></svg>