<svg xmlns="http://www.w3.org/2000/svg" xmlns:xlink="http://www.w3.org/1999/xlink" width="500" zoomAndPan="magnify" viewBox="0 0 375 374.999991" height="500" preserveAspectRatio="xMidYMid meet" version="1.0"><path fill="#00aa6d" d="M 266.953125 153.183594 C 289.8125 140.390625 309.109375 120.195312 309.109375 83.933594 L 309.109375 82.949219 C 309.109375 32.566406 268.75 -0.0117188 203.171875 -0.0117188 L 86.113281 -0.0117188 C 65.097656 -0.0117188 48.054688 17.039062 48.054688 38.054688 L 48.054688 321.003906 L 64.296875 321.003906 L 64.296875 39.96875 C 64.296875 30.632812 71.863281 23.074219 81.199219 23.074219 C 90.535156 23.074219 98.105469 30.632812 98.105469 39.96875 L 98.105469 321.003906 L 129.238281 321.003906 L 129.238281 375.007812 L 162.363281 353.699219 L 195.476562 375.007812 L 195.476562 321.003906 L 206.855469 321.003906 C 279.324219 321.003906 326.941406 291.667969 326.941406 232.929688 L 326.941406 232.011719 C 326.941406 188.867188 304.089844 167.34375 266.953125 153.183594 " fill-opacity="1" fill-rule="nonzero"/></svg>