<svg xmlns="http://www.w3.org/2000/svg" xmlns:xlink="http://www.w3.org/1999/xlink" width="80" zoomAndPan="magnify" viewBox="0 0 60 60" height="80" preserveAspectRatio="xMidYMid meet" version="1.0"><path fill="#f85d42" d="M 30 60 C 46.570312 60 60 46.570312 60 30 C 60 13.429688 46.570312 0 30 0 C 13.429688 0 0 13.429688 0 30 C 0 46.570312 13.429688 60 30 60 Z M 30 60 " fill-opacity="1" fill-rule="nonzero"/><path fill="#fad63a" d="M 30 57.070312 C 44.949219 57.070312 57.070312 44.949219 57.070312 30 C 57.070312 15.050781 44.949219 2.929688 30 2.929688 C 15.050781 2.929688 2.929688 15.050781 2.929688 30 C 2.929688 44.949219 15.050781 57.070312 30 57.070312 Z M 30 57.070312 " fill-opacity="1" fill-rule="nonzero"/><path fill="#3b3737" d="M 30 47.050781 C 24.617188 47.042969 19.453125 44.902344 15.644531 41.09375 C 11.835938 37.289062 9.695312 32.125 9.6875 26.742188 C 9.710938 26.34375 9.886719 25.964844 10.175781 25.691406 C 10.46875 25.414062 10.851562 25.261719 11.253906 25.261719 C 11.65625 25.261719 12.039062 25.414062 12.332031 25.691406 C 12.621094 25.964844 12.796875 26.34375 12.820312 26.742188 C 12.699219 29.070312 13.054688 31.402344 13.863281 33.589844 C 14.671875 35.78125 15.917969 37.78125 17.527344 39.472656 C 19.132812 41.164062 21.066406 42.511719 23.210938 43.433594 C 25.355469 44.351562 27.664062 44.828125 29.996094 44.828125 C 32.332031 44.828125 34.640625 44.351562 36.785156 43.433594 C 38.929688 42.511719 40.863281 41.164062 42.46875 39.472656 C 44.074219 37.78125 45.320312 35.78125 46.132812 33.589844 C 46.941406 31.402344 47.296875 29.070312 47.175781 26.742188 C 47.199219 26.34375 47.375 25.964844 47.664062 25.691406 C 47.957031 25.414062 48.339844 25.261719 48.742188 25.261719 C 49.140625 25.261719 49.527344 25.414062 49.816406 25.691406 C 50.109375 25.964844 50.285156 26.34375 50.308594 26.742188 C 50.300781 32.125 48.160156 37.285156 44.351562 41.09375 C 40.546875 44.902344 35.382812 47.042969 30 47.050781 Z M 30 47.050781 " fill-opacity="1" fill-rule="nonzero"/><path fill="#3b3737" d="M 24.140625 12.945312 C 21.769531 12.945312 20.925781 16.523438 20.925781 19.867188 C 20.925781 23.210938 21.753906 26.8125 24.140625 26.8125 C 26.53125 26.8125 27.359375 23.234375 27.359375 19.890625 C 27.359375 16.546875 26.515625 12.972656 24.140625 12.972656 Z M 24.140625 12.945312 " fill-opacity="1" fill-rule="nonzero"/><path fill="#3b3737" d="M 35.859375 12.945312 C 33.484375 12.945312 32.640625 16.523438 32.640625 19.867188 C 32.640625 23.210938 33.484375 26.8125 35.859375 26.8125 C 38.230469 26.8125 39.074219 23.234375 39.074219 19.890625 C 39.074219 16.546875 38.230469 12.972656 35.859375 12.972656 Z M 35.859375 12.945312 " fill-opacity="1" fill-rule="nonzero"/></svg>