<svg xmlns="http://www.w3.org/2000/svg" xmlns:xlink="http://www.w3.org/1999/xlink" width="100" zoomAndPan="magnify" viewBox="0 0 375 374.999991" height="100" preserveAspectRatio="xMidYMid meet" version="1.0"><path fill="#6db329" d="M 266.878906 153.183594 C 289.734375 140.390625 309.023438 120.195312 309.023438 83.933594 L 309.023438 82.949219 C 309.023438 32.566406 268.675781 -0.0117188 203.121094 -0.0117188 L 86.101562 -0.0117188 C 65.089844 -0.0117188 48.054688 17.039062 48.054688 38.054688 L 48.054688 321.003906 L 64.292969 321.003906 L 64.292969 39.96875 C 64.292969 30.632812 71.855469 23.074219 81.191406 23.074219 C 90.523438 23.074219 98.089844 30.632812 98.089844 39.96875 L 98.089844 321.003906 L 129.210938 321.003906 L 129.210938 375.007812 L 162.324219 353.699219 L 195.429688 375.007812 L 195.429688 321.003906 L 206.800781 321.003906 C 279.25 321.003906 326.851562 291.667969 326.851562 232.929688 L 326.851562 232.011719 C 326.851562 188.867188 304.003906 167.34375 266.878906 153.183594 " fill-opacity="1" fill-rule="nonzero"/></svg>